<svg xmlns="http://www.w3.org/2000/svg" version="1.1" x="0" y="0" viewBox="0 0 554.758 176.158" xml:space="preserve" id="svg42" width="554.758" height="176.158"><style type="text/css" id="style2">.st0{fill:#009de0}.st2{fill:none;stroke:#009de0;stroke-width:3.1153;stroke-miterlimit:10}.st3{fill:#20201e}</style><g id="Entwurf_cyan_100_x25_" transform="translate(-62.7 -94.3)"><g id="g18"><path class="st0" d="M156.2 233.2c-6.2.1-10.1-.5-16.6-1.2l.6-22.1c5 1.4 10.3 2.4 15.9 2.3 4.8-.1 6.3-2 6.1-3.8-1.1-8.1-24.7-4.2-24.7-29 0-14.5 10.6-26.7 35.5-26.7 4 0 8.4.5 12.9 1l-.7 21.6c-4.1-1-8.5-1.6-12.7-1.6-3.9 0-5.7 1.5-5.7 3.5-.1 6.4 24.5 5.5 25.3 29 .4 17-14.2 26.8-35.9 27z" id="path4" fill="#009de0"/><path class="st0" d="M235.1 233.3c-23 0-38.1-10.3-38.1-38 0-26.1 18.4-42.4 42-42.4 25.2 0 38 14 38 38.4-.1 25.7-18.8 42-41.9 42zm2.1-56.3c-5.6 0-11.1 4.5-11.1 15.3 0 11.9 2.9 16.7 10.5 16.7 7.3 0 11.1-6.3 11.1-15.9 0-11-2.8-16.1-10.5-16.1z" id="path6" fill="#009de0"/><path class="st0" d="M333.5 141.1c-2.3-.9-5.1-1.2-7.1-1.2-5.4 0-7.9 2-7.9 7.6v7.3h13.1v21.6h-13.1v55.1h-28.1v-55.1h-9.7v-21.6h9.7v-7.1c0-20.1 8.6-30.6 32.4-30.6 4 0 8.3.3 12.3 1.2z" id="path8" fill="#009de0"/><path class="st0" d="M370.5 233.3c-18.7 0-24.7-5.6-24.7-25.5v-31.5h-9.7v-21.6h9.7v-21.6l28.1-7.6v29.2h14.3v21.6h-14.3v25.8c0 5.7 1.9 7.9 6.5 7.9 2.5 0 5.5-.4 7.8-1.1v22c-5.5 1.4-11.8 2.4-17.7 2.4z" id="path10" fill="#009de0"/><path d="M407.5 231.8V176c-3.7-.6-9-1.2-13.5-1.5V156c12.9-1.4 26.7-1.9 41.7-1.4v77.2zm14.1-83c-9.3 0-16.9-7.3-16.9-16.3s7.6-16.3 16.9-16.3c9.3 0 16.9 7.3 16.9 16.3s-7.6 16.3-16.9 16.3z" id="path12" fill="none" stroke="#009de0" stroke-width="3.033" stroke-miterlimit="10"/><path class="st2" d="M502.6 231.8v-48.7c0-3.9-1.1-6.4-4.3-6.4-6.2 0-12.1 9-12.1 17.5v37.5H458V176c-3.7-.6-9-1.2-13.5-1.5V156c12.9-1.4 26.7-1.9 39.5-1.4 0 2.2-.2 7-.8 10.4h.2c4.8-6.8 12.9-12.1 24.6-12.1 17 0 22.8 11.2 22.8 24.3v54.6z" id="path14" fill="none" stroke="#009de0" stroke-width="3.115" stroke-miterlimit="10"/><path class="st2" d="M569.9 268.9c-8.6 0-17.6-1.2-24.8-3.2l2.2-25.3c7.3 3.1 16.2 4.9 23.6 4.9 12.2 0 17.4-4 17.4-13v-1.1c0-2 0-4.2.6-7.9h-.3c-3.7 6.3-10.8 10-19.3 10-18.7 0-28.5-12.8-28.5-35.5 0-24.4 14.3-44.7 43.8-44.7 13.3 0 21.1.9 31.3 2.6v73.4c0 22.9-10.5 39.8-46 39.8zm17.9-92.5c-1.2-.3-2.8-.6-5.4-.6-6.5 0-12 4.3-12 19.1 0 11.1 2.5 15.1 7.4 15.1 5.2 0 10-5.7 10-18.7z" id="path16" fill="none" stroke="#009de0" stroke-width="3.115" stroke-miterlimit="10"/></g></g><g id="Claim" transform="translate(-62.7 -94.3)"><g id="g39"><path class="st3" d="M73.2 128.6c-6.4 0-10.5-3.9-10.5-12.2 0-6.8 4.2-12.5 11.4-12.5 5.8 0 10.6 3.2 10.6 12 0 7.1-4.4 12.7-11.5 12.7zm.6-21.7c-3.7 0-7.3 2.8-7.3 9.2 0 6.1 2.6 9.5 7.3 9.5 3.7 0 7.2-2.9 7.2-9.5-.1-5.7-2.5-9.2-7.2-9.2z" id="path21" fill="#20201e"/><path class="st3" d="M101.5 128.5c-1.6 0-2.9 0-4.5-.3v12h-3.6v-32.9c-1.2-.2-2.8-.4-4.2-.5v-2.1c2.1-.3 5.3-.4 7.7-.3 0 1.4 0 3.8-.4 5.2h.1c1.3-3.5 4.4-5.7 8.2-5.7 5.6 0 8.8 3.9 8.8 11.3.1 8.5-4.6 13.3-12.1 13.3zm2.7-21.6c-4.8 0-7.1 5.6-7.1 9.8v8.4c1.4.4 2.9.6 4.7.6 4.9 0 8.2-3 8.2-10.2-.1-5.4-1.9-8.6-5.8-8.6z" id="path23" fill="#20201e"/><path class="st3" d="M128.6 128.6c-4.8 0-6.2-2.1-6.2-7.1v-14.4h-5.2v-2.8h5.2v-7.9l3.6-1v8.9h7v2.8h-7V120c0 4.3.8 5.4 3.6 5.4 1.2 0 2.3-.1 3.2-.4l.4 3c-1.3.4-3.1.6-4.6.6z" id="path25" fill="#20201e"/><path class="st3" d="M141.7 128.2v-21c-1.2-.2-2.8-.4-4.2-.5v-2.1c2.1-.3 5.3-.4 7.7-.3v23.9zm1.8-29.1c-1.3 0-2.4-1.1-2.4-2.4 0-1.3 1.1-2.4 2.4-2.4 1.4 0 2.5 1.1 2.5 2.4 0 1.3-1.1 2.4-2.5 2.4z" id="path27" fill="#20201e"/><path class="st3" d="M186.4 128.2v-15.4c0-3.6-.8-6-4.3-6-3.7 0-7.2 3.8-7.2 10v11.3h-3.6v-15.4c0-3.3-.6-5.9-4.3-5.9-4 0-7.2 4.1-7.2 10v11.3h-3.6v-21c-1.2-.2-2.8-.4-4.2-.5v-2.1c2.1-.3 5.3-.4 7.7-.3 0 1.5-.1 3.8-.4 5.3 1.4-3.5 4.5-5.8 8.4-5.8 5.4 0 6.5 3.9 6.6 5.7.9-2.3 3.5-5.7 8.3-5.7 4.5 0 7.1 2.4 7.1 7.8V128h-3.3z" id="path29" fill="#20201e"/><path class="st3" d="M201.2 128.2v-21c-1.2-.2-2.8-.4-4.2-.5v-2.1c2.1-.3 5.3-.4 7.7-.3v23.9zm1.7-29.1c-1.3 0-2.4-1.1-2.4-2.4 0-1.3 1.1-2.4 2.4-2.4 1.4 0 2.5 1.1 2.5 2.4 0 1.3-1.1 2.4-2.5 2.4z" id="path31" fill="#20201e"/><path class="st3" d="M212.7 128.2v-2.5l12.1-18.2c-1.5 0-4.1.1-6.8.1h-5.1v-3.2h16v2.5l-12 18.1c1.4 0 4.7-.1 6.9-.1h5.4v3.3z" id="path33" fill="#20201e"/><path class="st3" d="M254.2 115.7h-15.9c-.2 7 2.5 9.9 7.9 9.9 2.3 0 4.7-.5 6.8-1.4l.6 2.9c-2.4.9-5.1 1.5-8.1 1.5-7.1 0-10.9-3.9-10.9-12.2 0-7.1 3.9-12.5 10.5-12.5s9.3 4.5 9.3 9.6c-.1.5-.1 1.4-.2 2.2zm-9.4-9c-3.4 0-5.8 2.5-6.3 6.4h12.1c0-3.9-2.2-6.4-5.8-6.4z" id="path35" fill="#20201e"/><path class="st3" d="M266 128.6c-1.4 0-2.5-1.1-2.5-2.5s1.1-2.5 2.5-2.5 2.5 1.1 2.5 2.5-1.1 2.5-2.5 2.5zm1.5-8.1h-3l-.7-26h4.3z" id="path37" fill="#20201e"/></g></g></svg>